<svg width="54" height="54" viewBox="0 0 54 54" fill="none" xmlns="http://www.w3.org/2000/svg">
<rect width="54" height="54" rx="27" fill="#E5F1FF"/>
<path d="M42.001 22.7734C42.001 20.5643 40.2101 18.7734 38.001 18.7734H25.3753C23.1662 18.7734 21.3753 20.5643 21.3753 22.7734V32.1937C21.3753 34.4028 23.1662 36.1937 25.3753 36.1937H38.001C40.2101 36.1937 42.001 34.4028 42.001 32.1937V22.7734Z" fill="#63B2F8"/>
<path d="M37.3135 41.0489C37.3135 41.4516 36.8618 41.6891 36.53 41.4608L28.8757 36.1933H37.3135V41.0489Z" fill="#63B2F8"/>
<path d="M11.999 15.999C11.999 13.7899 13.7899 11.999 15.999 11.999H31.4373C33.6464 11.999 35.4373 13.7899 35.4373 15.999V27.3548C35.4373 29.564 33.6464 31.3548 31.4373 31.3548H15.999C13.7899 31.3548 11.999 29.564 11.999 27.3548V15.999Z" fill="#0070CD"/>
<path d="M18.5615 19.7412H28.4056" stroke="white" stroke-width="1.5" stroke-linecap="round"/>
<path d="M18.5615 23.6113H25.593" stroke="white" stroke-width="1.5" stroke-linecap="round"/>
<path d="M17.624 36.2091C17.624 36.6118 18.0757 36.8493 18.4075 36.621L26.0618 31.3534H17.624V36.2091Z" fill="#0070CD"/>
</svg>
